<svg width="40" height="35" viewBox="0 0 40 35" fill="none" xmlns="http://www.w3.org/2000/svg">
<g filter="url(#filter0_d_19_3861)">
<path d="M20.0001 0.239746C11.3196 0.239746 4.25635 6.24287 4.25635 13.6226C4.25635 17.017 5.76299 20.1106 8.2215 22.4726V28.9734C8.2215 29.2914 8.41346 29.5789 8.70735 29.7007C8.80561 29.7409 8.90724 29.7605 9.00886 29.7605C9.21425 29.7605 9.41505 29.6802 9.5655 29.5298L13.3573 25.7386C15.3782 26.543 17.6246 27.0051 19.9997 27.0051C28.6802 27.0051 35.7435 21.0019 35.7435 13.6223C35.7432 6.24311 28.6805 0.240224 19.9997 0.240224L20.0001 0.239746ZM11.0782 15.8804C9.84619 15.8804 8.84799 14.8815 8.84799 13.6501C8.84799 12.4181 9.84619 11.4199 11.0782 11.4199C12.3093 11.4199 13.3085 12.4187 13.3085 13.6501C13.3085 14.8815 12.3093 15.8804 11.0782 15.8804ZM20.0001 15.8804C18.769 15.8804 17.7699 14.8815 17.7699 13.6501C17.7699 12.4181 18.7687 11.4199 20.0001 11.4199C21.2312 11.4199 22.2303 12.4187 22.2303 13.6501C22.23 14.8815 21.2312 15.8804 20.0001 15.8804ZM28.9212 15.8804C27.6901 15.8804 26.691 14.8815 26.691 13.6501C26.691 12.4181 27.6898 11.4199 28.9212 11.4199C30.1532 11.4199 31.1514 12.4187 31.1514 13.6501C31.1514 14.8815 30.1532 15.8804 28.9212 15.8804Z" fill="white"/>
</g>
<defs>
<filter id="filter0_d_19_3861" x="0.256348" y="0.239746" width="39.4871" height="37.5208" filterUnits="userSpaceOnUse" color-interpolation-filters="sRGB">
<feFlood flood-opacity="0" result="BackgroundImageFix"/>
<feColorMatrix in="SourceAlpha" type="matrix" values="0 0 0 0 0 0 0 0 0 0 0 0 0 0 0 0 0 0 127 0" result="hardAlpha"/>
<feOffset dy="4"/>
<feGaussianBlur stdDeviation="2"/>
<feComposite in2="hardAlpha" operator="out"/>
<feColorMatrix type="matrix" values="0 0 0 0 0 0 0 0 0 0 0 0 0 0 0 0 0 0 0.25 0"/>
<feBlend mode="normal" in2="BackgroundImageFix" result="effect1_dropShadow_19_3861"/>
<feBlend mode="normal" in="SourceGraphic" in2="effect1_dropShadow_19_3861" result="shape"/>
</filter>
</defs>
</svg>
