<svg width="50" height="41" viewBox="0 0 50 41" fill="none" xmlns="http://www.w3.org/2000/svg">
<g filter="url(#filter0_d_19_3862)">
<path d="M21.7151 0.0233329C11.7334 -0.489522 3.49668 7.52113 4.02399 17.2288C4.47038 25.5552 11.4091 32.3032 19.9708 32.7378C29.9525 33.2509 38.19 25.24 37.6619 15.5324C37.2158 7.20599 30.2367 0.418108 21.7151 0.0233329ZM33.3197 19.5576C33.7254 19.8733 34.1313 20.1891 34.4964 20.4652C34.9833 20.3862 35.4297 20.3468 35.8761 20.2678C35.7949 20.5835 35.6731 20.9387 35.5514 21.2544C34.4152 22.6355 33.1573 24.0167 31.8589 25.2797C31.9401 25.3981 32.0618 25.5165 32.1428 25.6348C32.0211 26.1083 31.8994 26.5818 31.7372 26.9766C31.3316 27.2134 30.9256 27.4501 30.52 27.6475C30.3171 27.9633 30.1549 28.2394 29.9519 28.5158C28.7752 29.305 27.5985 29.9366 26.5436 30.41C26.5031 30.41 26.5031 30.41 26.4623 30.4494C25.9347 30.4888 25.3669 30.4888 24.8393 30.5284C24.7988 29.8575 24.5959 28.8315 24.1899 27.4898C24.4334 27.2924 24.6768 27.0556 24.9202 26.8189C25.0015 26.3057 25.0824 25.7928 25.1637 25.2404C24.6768 24.6879 24.1899 24.096 23.6219 23.4645C23.8653 23.3068 24.1087 23.1487 24.3929 22.991C23.8653 22.6752 23.2975 22.3201 22.7294 21.965C21.5527 21.965 20.376 21.9256 19.1993 21.8859C18.5095 21.3334 17.7792 20.7415 17.0894 20.1497C17.0082 18.8473 16.9677 17.5451 16.9272 16.2034C18.5098 14.8616 20.0921 13.5199 21.5935 12.2178C22.4456 12.1388 23.2978 12.0994 24.1094 12.0204C24.3123 12.2571 24.5557 12.4939 24.7587 12.7306C24.7182 12.928 24.6775 13.1648 24.637 13.3621C25.3268 13.5989 26.0166 13.7963 26.7065 14.033C27.0312 13.7569 27.3558 13.4412 27.6397 13.1648C27.9236 13.3621 28.1673 13.5989 28.4512 13.7963C29.344 13.8356 30.2365 13.9146 31.0888 13.954C31.251 13.7963 31.4135 13.6383 31.5352 13.4409C31.4947 12.9674 31.4539 12.4542 31.373 11.9807C31.0891 12.4542 30.7644 12.9277 30.4398 13.4015C29.9121 12.7307 29.3848 12.0598 28.8167 11.4286C28.9789 12.0601 29.1006 12.7309 29.2223 13.4015C28.7354 13.0464 28.2486 12.7307 27.7614 12.3755C27.6397 11.902 27.518 11.3889 27.3962 10.9154C26.7877 10.2838 26.1791 9.6526 25.5702 9.02111C25.489 9.10012 25.408 9.2185 25.3268 9.29722C25.8137 9.88909 26.3005 10.4809 26.7877 11.1125C26.5443 11.507 26.2601 11.9018 26.0166 12.2962C25.8545 11.8227 25.7327 11.3096 25.5703 10.8361C25.0426 10.481 24.5153 10.0862 24.0285 9.7311C23.785 9.96784 23.5008 10.2046 23.2169 10.4413C23.0547 10.3623 22.8518 10.244 22.6893 10.1652C21.7965 10.9939 20.8228 11.8621 19.8491 12.7698C19.484 11.8228 19.1593 10.8755 18.8346 9.96784C19.484 10.0072 20.1738 10.0469 20.8228 10.1256C20.9446 9.84947 21.0663 9.57306 21.1475 9.29693L20.4166 8.58698C20.8222 8.27122 21.2282 7.99511 21.5933 7.7187C21.8772 7.67934 22.121 7.67934 22.4454 7.60032C22.77 6.92944 22.8918 6.65332 23.1757 5.98242C23.1352 5.90341 23.0944 5.82468 23.054 5.74568C23.2569 5.66666 23.4596 5.58794 23.6625 5.46957C23.8247 5.66695 24.0277 5.86405 24.1902 6.06144H26.4218C26.4218 5.86405 26.4218 5.70631 26.3813 5.50892C27.1116 5.27218 27.8014 5.07479 28.4508 4.8774C28.2478 4.71967 28.0857 4.56164 27.8827 4.40391C27.4771 4.52228 27.0307 4.60129 26.6247 4.71967C26.4218 4.44356 26.1784 4.16715 25.9754 3.93042C26.2593 3.73303 26.503 3.53594 26.7465 3.37791C26.503 3.22017 26.2188 3.02278 25.9754 2.86476C25.732 3.21988 25.4885 3.65401 25.1639 4.12751C25.3668 4.24588 25.529 4.36426 25.732 4.48264L25.8537 5.42965C25.4073 5.50866 24.9609 5.62703 24.5145 5.74541C24.3523 5.4693 24.1899 5.23226 24.0681 4.95616L22.6072 5.07453C22.6072 4.68005 22.6072 4.32463 22.5668 4.00916C23.2566 3.14088 23.7839 2.43066 24.1898 1.87813C24.7174 1.83877 25.2043 1.75975 25.6507 1.72039C31.6562 3.65404 36.0384 9.06043 36.3222 15.4533C36.0787 15.4139 35.7945 15.3349 35.5511 15.2956C35.835 15.7297 36.0787 16.1639 36.3626 16.598C36.3221 17.5056 36.2409 18.3738 36.0379 19.2418C35.6323 19.3996 35.2264 19.5576 34.8208 19.755C34.2122 18.0581 33.3599 16.2428 32.3862 14.3882C31.9806 14.4672 32.0615 14.4672 31.6559 14.5459C31.6559 14.9404 31.6155 15.3352 31.6155 15.7694C32.3053 17.2289 32.8734 18.4132 33.3197 19.5576ZM6.09302 21.4518C6.29598 21.4518 6.49863 21.4518 6.70159 21.4912C6.86378 22.1227 7.06674 22.7539 7.2697 23.3458C7.67532 23.3458 8.08123 23.3852 8.48684 23.3852C9.7448 24.2138 10.9619 25.0427 12.1794 25.7923C11.936 26.1081 11.733 26.3842 11.4896 26.6999C11.5708 27.2918 11.6925 27.8049 11.8142 28.3178C11.733 28.4362 11.6521 28.5152 11.5708 28.6336C9.09571 26.8583 7.18846 24.3721 6.09302 21.4518ZM19.5239 5.78487C19.7673 5.54813 20.0515 5.31138 20.295 5.11399C20.4572 5.42975 20.6196 5.74551 20.7818 6.10063C21.1065 6.33737 21.4717 6.61377 21.8368 6.85053C21.8368 7.12664 21.7556 7.36367 21.7151 7.67918C21.147 7.67918 20.6197 7.71854 20.0516 7.71854C20.2137 7.40278 20.4167 7.12667 20.5792 6.81093L19.5239 5.78487ZM18.7531 3.49608C18.1038 3.8512 17.414 4.20632 16.7245 4.60107C16.3998 4.12758 16.1159 3.65406 15.8724 3.25929C16.5623 3.10155 17.2521 2.98318 17.9419 2.86481C18.185 3.0619 18.469 3.25933 18.7531 3.49608ZM18.9153 6.41636C19.1992 6.73212 19.443 7.08725 19.7674 7.403C19.5239 7.63975 19.2805 7.91615 18.9963 8.1529C18.7124 7.91616 18.4687 7.6794 18.1848 7.44266C18.4285 7.12661 18.6719 6.77145 18.9153 6.41636ZM15.304 2.74616C14.4925 2.90389 13.681 3.10128 12.8289 3.33803C14.0056 2.66714 15.304 2.1146 16.6432 1.75953C16.2373 1.99656 15.7504 2.35168 15.304 2.74616ZM10.4756 4.99555C10.8003 4.71944 11.1654 4.44304 11.5306 4.1669C11.2872 4.44301 11.0438 4.71941 10.8003 4.99555H10.4756ZM24.9209 12.6121C25.0831 12.3753 25.2048 12.1386 25.3673 11.9018C25.489 12.257 25.6107 12.5727 25.7325 12.9279C25.4483 12.8095 25.2048 12.7305 24.9209 12.6121Z" fill="white"/>
<path fill-rule="evenodd" clip-rule="evenodd" d="M39.7681 18.4614L43.1004 18.4711C44.3304 18.4747 45.3338 19.4839 45.3302 20.7139L45.3222 23.4647C45.3186 24.6947 44.3094 25.698 43.0794 25.6945L39.7472 25.6848L39.7375 29.017C39.734 30.247 38.7247 31.2504 37.4947 31.2468L34.744 31.2389C33.514 31.2353 32.5106 30.2261 32.5142 28.9961L32.5238 25.6639L29.1916 25.6542C27.9616 25.6506 26.9357 24.6413 26.9393 23.4113L26.9473 20.6606C26.9508 19.4306 27.9825 18.4272 29.2125 18.4308L32.5448 18.4405L32.5544 15.1082C32.558 13.8782 33.5673 12.8524 34.7973 12.856L37.5481 12.8639C38.7781 12.8675 39.7814 13.8992 39.7778 15.1292L39.7681 18.4614ZM34.3232 14.3084L37.0515 14.3163C37.7224 14.3182 38.28 14.8566 38.278 15.5275L38.2654 19.8885L42.6038 19.901C43.2747 19.903 43.8322 20.4637 43.8303 21.1123L43.8223 23.8631C43.8216 24.1091 43.7314 24.3548 43.5966 24.5556C44.0221 24.3557 44.2916 23.9314 44.293 23.4619L44.301 20.7111C44.3029 20.0402 43.7677 19.5019 43.0968 19.4999L38.7359 19.4873L38.7485 15.1263C38.7505 14.4554 38.2153 13.8948 37.5444 13.8928L34.7936 13.8848C34.3688 13.8836 34.0102 14.1062 33.7858 14.4187C33.9425 14.352 34.1215 14.3079 34.3229 14.3085L34.3232 14.3084ZM38.7199 25.0782L38.2502 25.0769L38.2377 29.4152C38.2369 29.6836 38.1468 29.907 38.012 30.1078C38.4374 29.9078 38.707 29.4836 38.7084 29.0141L38.7198 25.078L38.7199 25.0782ZM28.2013 19.9713C28.3581 19.9046 28.5371 19.8605 28.716 19.861L33.0769 19.8736L33.0781 19.4711L29.2093 19.4599C28.7844 19.4586 28.4259 19.6588 28.2015 19.9713L28.2013 19.9713Z" fill="#831800"/>
</g>
<defs>
<filter id="filter0_d_19_3862" x="0" y="0" width="49.3301" height="40.7612" filterUnits="userSpaceOnUse" color-interpolation-filters="sRGB">
<feFlood flood-opacity="0" result="BackgroundImageFix"/>
<feColorMatrix in="SourceAlpha" type="matrix" values="0 0 0 0 0 0 0 0 0 0 0 0 0 0 0 0 0 0 127 0" result="hardAlpha"/>
<feOffset dy="4"/>
<feGaussianBlur stdDeviation="2"/>
<feComposite in2="hardAlpha" operator="out"/>
<feColorMatrix type="matrix" values="0 0 0 0 0 0 0 0 0 0 0 0 0 0 0 0 0 0 0.25 0"/>
<feBlend mode="normal" in2="BackgroundImageFix" result="effect1_dropShadow_19_3862"/>
<feBlend mode="normal" in="SourceGraphic" in2="effect1_dropShadow_19_3862" result="shape"/>
</filter>
</defs>
</svg>
