<svg width="50" height="50" viewBox="0 0 50 50" fill="none" xmlns="http://www.w3.org/2000/svg">
<path d="M47.3757 20.3031L29.6968 2.62305C28.4498 1.37934 26.7611 0.680786 25.0001 0.680786C23.2392 0.680786 21.55 1.37933 20.3035 2.62305L2.62342 20.3031C1.37971 21.5497 0.681152 23.2388 0.681152 24.9998C0.681152 26.7607 1.3797 28.4495 2.62342 29.6964L20.3035 47.3753C21.55 48.6195 23.2392 49.318 25.0001 49.318C26.7611 49.318 28.4499 48.6195 29.6968 47.3753L47.3757 29.6964C48.6199 28.4494 49.3184 26.7607 49.3184 24.9998C49.3184 23.2388 48.6199 21.5497 47.3757 20.3031ZM44.2469 26.5654L26.5656 44.2466C26.15 44.66 25.5874 44.8921 25.001 44.8921C24.4146 44.8921 23.852 44.66 23.4363 44.2466L5.75268 26.5654C5.33886 26.1497 5.10632 25.5872 5.10632 25.0007C5.10632 24.4143 5.33886 23.8517 5.75268 23.436L23.4339 5.75243C23.8496 5.33815 24.4122 5.10561 24.9986 5.10561C25.585 5.10561 26.1476 5.33816 26.5633 5.75243L44.2469 23.4337C44.6612 23.8493 44.8942 24.4124 44.8942 24.9997C44.8942 25.5865 44.6612 26.1496 44.2469 26.5652V26.5654Z" fill="#3A9864"/>
<path d="M28.7781 14.5785C28.2146 14.0443 27.4117 13.8443 26.6632 14.0521C25.9148 14.2599 25.3302 14.8445 25.1225 15.5929C24.9146 16.3413 25.1147 17.1438 25.6489 17.7078L27.404 19.4637H18.3577C17.7704 19.4637 17.2069 19.6972 16.7917 20.1124C16.3765 20.528 16.1436 21.0915 16.1436 21.6788V31.6416C16.1436 32.4326 16.5656 33.1637 17.2509 33.5592C17.9357 33.9547 18.7798 33.9547 19.4647 33.5592C20.15 33.1637 20.5715 32.4326 20.5715 31.6416V23.8926H27.4037L25.649 25.649C25.2155 26.0601 24.967 26.6286 24.9587 27.226C24.951 27.8234 25.1844 28.3984 25.6069 28.8203C26.0294 29.2429 26.6044 29.4768 27.2013 29.4685C27.7986 29.4607 28.3672 29.2117 28.7783 28.7782L34.313 23.2435C34.7282 22.8283 34.9617 22.2657 34.9617 21.6788C34.9617 21.0919 34.7282 20.5289 34.313 20.1141L28.7781 14.5785Z" fill="#3A9864"/>
</svg>
