<svg width="138" height="138" viewBox="0 0 138 138" fill="none" xmlns="http://www.w3.org/2000/svg">
<g filter="url(#filter0_dd_74_646)">
<circle cx="69" cy="65" r="65" fill="url(#paint0_radial_74_646)"/>
<path d="M69.0007 31.7672C62.2693 31.7672 56.7939 37.372 56.7939 44.257V64.4438C56.7939 71.3289 62.2693 76.9336 69.0007 76.9336C75.7322 76.9336 81.2075 71.3288 81.2075 64.4438L81.207 44.257C81.207 37.3719 75.7322 31.7672 69.0007 31.7672ZM68.8579 41.6081C67.3589 41.6081 66.1455 42.8664 66.1455 44.4181V49.6865H63.2901V44.4181C63.2901 41.2497 65.7884 38.6815 68.8579 38.6815V41.6081Z" fill="#3A9864"/>
<path d="M70.4282 84.8144V93.4481H81.6357V96.3749L56.3655 96.3755V93.4487H67.5731V84.815C62.8548 84.4711 58.4717 82.4151 55.0954 78.9541C51.3832 75.149 49.335 70.1078 49.335 64.6935H52.1903C52.1903 74.2055 59.7355 81.9253 69.0018 81.9253C78.2745 81.9253 85.8133 74.206 85.8133 64.6935H88.6687C88.6687 70.1077 86.6199 75.1496 82.9082 78.9541C79.5309 82.4147 75.1476 84.4706 70.4293 84.8144L70.4282 84.8144Z" fill="#3A9864"/>
</g>
<defs>
<filter id="filter0_dd_74_646" x="0" y="0" width="138" height="138" filterUnits="userSpaceOnUse" color-interpolation-filters="sRGB">
<feFlood flood-opacity="0" result="BackgroundImageFix"/>
<feColorMatrix in="SourceAlpha" type="matrix" values="0 0 0 0 0 0 0 0 0 0 0 0 0 0 0 0 0 0 127 0" result="hardAlpha"/>
<feOffset dy="4"/>
<feGaussianBlur stdDeviation="2"/>
<feComposite in2="hardAlpha" operator="out"/>
<feColorMatrix type="matrix" values="0 0 0 0 0 0 0 0 0 0 0 0 0 0 0 0 0 0 0.25 0"/>
<feBlend mode="normal" in2="BackgroundImageFix" result="effect1_dropShadow_74_646"/>
<feColorMatrix in="SourceAlpha" type="matrix" values="0 0 0 0 0 0 0 0 0 0 0 0 0 0 0 0 0 0 127 0" result="hardAlpha"/>
<feOffset dy="4"/>
<feGaussianBlur stdDeviation="2"/>
<feComposite in2="hardAlpha" operator="out"/>
<feColorMatrix type="matrix" values="0 0 0 0 0 0 0 0 0 0 0 0 0 0 0 0 0 0 0.25 0"/>
<feBlend mode="normal" in2="effect1_dropShadow_74_646" result="effect2_dropShadow_74_646"/>
<feBlend mode="normal" in="SourceGraphic" in2="effect2_dropShadow_74_646" result="shape"/>
</filter>
<radialGradient id="paint0_radial_74_646" cx="0" cy="0" r="1" gradientUnits="userSpaceOnUse" gradientTransform="translate(69 65) rotate(90) scale(65)">
<stop offset="0.142725" stop-color="#D9D9D9"/>
<stop offset="0.572725" stop-color="white"/>
<stop offset="0.957725" stop-color="#3A9864"/>
</radialGradient>
</defs>
</svg>
