<svg width="32" height="37" viewBox="0 0 32 37" fill="none" xmlns="http://www.w3.org/2000/svg">
<g filter="url(#filter0_d_19_3869)">
<path d="M4.19214 0.46875V33.5312H27.8085V6.76641H22.298C21.8857 6.76641 21.511 6.39134 21.5107 5.97906L21.511 0.468829L4.19214 0.46875ZM23.0851 1.25609V5.19227H27.0213L23.0851 1.25609ZM8.12808 4.79859C8.78024 4.79859 9.30878 5.32716 9.30878 5.9793C9.30878 6.63144 8.78022 7.16 8.12808 7.16C7.47593 7.16 6.94737 6.63144 6.94737 5.9793C6.94737 5.32716 7.47593 4.79859 8.12808 4.79859ZM12.8513 5.19227H19.1489C19.5837 5.19227 19.9362 5.54475 19.9362 5.97962C19.9362 6.41448 19.5837 6.76696 19.1489 6.76696H12.8513C12.4164 6.76696 12.0639 6.41448 12.0639 5.97962C12.0639 5.54475 12.4164 5.19227 12.8513 5.19227ZM8.12839 10.3088C8.78055 10.3088 9.30909 10.8374 9.30909 11.4895C9.30909 12.1417 8.78053 12.6702 8.12839 12.6702C7.47622 12.6702 6.94769 12.1417 6.94769 11.4895C6.94769 10.8374 7.47625 10.3088 8.12839 10.3088ZM12.8516 10.7025H23.4789C23.9138 10.7025 24.2663 11.055 24.2663 11.4899C24.2663 11.9247 23.9138 12.2772 23.4789 12.2772H12.8516C12.4167 12.2772 12.0642 11.9247 12.0642 11.4899C12.0642 11.055 12.4167 10.7025 12.8516 10.7025ZM8.12839 15.8191C8.78055 15.8191 9.30909 16.3476 9.30909 16.9998C9.30909 17.6519 8.78053 18.1805 8.12839 18.1805C7.47622 18.1805 6.94769 17.6519 6.94769 16.9998C6.94769 16.3476 7.47625 15.8191 8.12839 15.8191ZM12.8516 16.2128H23.4789C23.9138 16.2128 24.2663 16.5652 24.2663 17.0001C24.2663 17.435 23.9138 17.7874 23.4789 17.7874H12.8516C12.4167 17.7874 12.0642 17.435 12.0642 17.0001C12.0642 16.5652 12.4167 16.2128 12.8516 16.2128ZM8.12839 21.3296C8.78055 21.3296 9.30909 21.8582 9.30909 22.5103C9.30909 23.1625 8.78053 23.691 8.12839 23.691C7.47622 23.691 6.94769 23.1625 6.94769 22.5103C6.94769 21.8582 7.47625 21.3296 8.12839 21.3296ZM12.8516 21.7233H23.4789C23.9138 21.7233 24.2663 22.0758 24.2663 22.5107C24.2663 22.9455 23.9138 23.298 23.4789 23.298H12.8516C12.4167 23.298 12.0642 22.9455 12.0642 22.5107C12.0642 22.0758 12.4167 21.7233 12.8516 21.7233ZM8.12839 26.8399C8.78055 26.8399 9.30909 27.3684 9.30909 28.0206C9.30909 28.6727 8.78053 29.2013 8.12839 29.2013C7.47622 29.2013 6.94769 28.6727 6.94769 28.0206C6.94769 27.3684 7.47625 26.8399 8.12839 26.8399ZM12.8516 27.2336H23.4789C23.9138 27.2336 24.2663 27.586 24.2663 28.0209C24.2663 28.4558 23.9138 28.8082 23.4789 28.8082H12.8516C12.4167 28.8082 12.0642 28.4558 12.0642 28.0209C12.0642 27.586 12.4167 27.2336 12.8516 27.2336Z" fill="white"/>
</g>
<defs>
<filter id="filter0_d_19_3869" x="0.192139" y="0.46875" width="31.6165" height="41.0625" filterUnits="userSpaceOnUse" color-interpolation-filters="sRGB">
<feFlood flood-opacity="0" result="BackgroundImageFix"/>
<feColorMatrix in="SourceAlpha" type="matrix" values="0 0 0 0 0 0 0 0 0 0 0 0 0 0 0 0 0 0 127 0" result="hardAlpha"/>
<feOffset dy="4"/>
<feGaussianBlur stdDeviation="2"/>
<feComposite in2="hardAlpha" operator="out"/>
<feColorMatrix type="matrix" values="0 0 0 0 0 0 0 0 0 0 0 0 0 0 0 0 0 0 0.25 0"/>
<feBlend mode="normal" in2="BackgroundImageFix" result="effect1_dropShadow_19_3869"/>
<feBlend mode="normal" in="SourceGraphic" in2="effect1_dropShadow_19_3869" result="shape"/>
</filter>
</defs>
</svg>
